<?xml version="1.0" standalone="no"?><!DOCTYPE svg PUBLIC "-//W3C//DTD SVG 1.1//EN" "http://www.w3.org/Graphics/SVG/1.1/DTD/svg11.dtd"><svg t="1651724988898" class="icon" viewBox="0 0 1024 1024" version="1.1" xmlns="http://www.w3.org/2000/svg" p-id="3022" xmlns:xlink="http://www.w3.org/1999/xlink" width="200" height="200"><defs><style type="text/css">@font-face { font-family: feedback-iconfont; src: url("//at.alicdn.com/t/font_1031158_u69w8yhxdu.woff2?t=1630033759944") format("woff2"), url("//at.alicdn.com/t/font_1031158_u69w8yhxdu.woff?t=1630033759944") format("woff"), url("//at.alicdn.com/t/font_1031158_u69w8yhxdu.ttf?t=1630033759944") format("truetype"); }
</style></defs><path d="M496.938013 1024l-9.176997-4.146378C472.979836 1013.209858 125.496639 855.097834 103.916355 671.677371l-0.155339-2.712472V150.799104L496.890217 0l413.466766 145.051531 0.645257 15.713219c16.394324 401.493652 7.563854 499.548917 0 526.876774-1.087379 157.10829-363.172517 314.837939-404.803584 332.463032zM150.088125 667.530993C166.410754 793.893951 397.902913 926.888723 497.535474 973.335325c147.560866-63.952203 370.342046-194.879761 367.115758-288.358477l-0.29873-8.591486 3.668409-4.576549c10.192681-36.337565 4.779686-303.366692-2.73637-493.502614L497.583271 49.457804 150.088125 182.691561z" p-id="3023" fill="#515151"></path><path d="M416.53174 339.286034h241.37416q34.485437 0 68.970874-2.043316v32.454071q-34.521285-1.995519-68.970874-2.019418h-93.299477v34.485437h71.00224q34.473488 0 64.92009-2.031367v36.480956a449.876027 449.876027 0 0 0-62.900672-4.038835h-73.021658v34.473488h137.941747v34.473488c-18.963406-1.314414-39.910381-2.031367-62.876773-2.031367h-75.064974v38.572069h85.209858q40.543689 0 87.229275-2.031367v36.528753q-44.630321-4.026886-87.229275-4.062734H404.367438v18.258402h-42.598954q1.971621-48.669156 2.019417-164.301717-26.383869 44.618372-48.681105 66.915608-14.231516-18.222554-28.403286-26.35997a617.009709 617.009709 0 0 0 39.551904-51.716206q17.230769-25.356236 37.532487-56.806572t34.485437-80.059746q26.288275 14.195668 48.681106 24.340552-10.156833 8.065721-30.422704 40.519791z m273.852129 336.705004q0 42.598954 2.031366 75.064974h-42.598954v-22.297237H398.273338v24.328604h-42.598954a665.571322 665.571322 0 0 0 4.050784-77.096341q0-42.587005-4.050784-73.021658h336.740851q-2.055265 30.434653-2.031366 73.021658z m-40.627334 20.313667v-60.869305H398.273338v60.845407zM524.038835 402.162808V367.677371H404.367438v34.485437z m0 64.90814v-34.473487H404.367438v34.473487z m0 70.990292v-38.548171H404.367438v38.548171z m54.775205-219.064974q-12.1882 4.098581-36.516803 14.183719-6.070202-16.203137-26.35997-46.661688a159.378641 159.378641 0 0 0 34.473487-16.215086q20.253921 32.477969 28.403286 48.693055z" p-id="3024" fill="#515151"></path></svg>