<?xml version="1.0" standalone="no"?><!DOCTYPE svg PUBLIC "-//W3C//DTD SVG 1.1//EN" "http://www.w3.org/Graphics/SVG/1.1/DTD/svg11.dtd"><svg t="1651669881235" class="icon" viewBox="0 0 1024 1024" version="1.1" xmlns="http://www.w3.org/2000/svg" p-id="16326" xmlns:xlink="http://www.w3.org/1999/xlink" width="200" height="200"><defs><style type="text/css">@font-face { font-family: feedback-iconfont; src: url("//at.alicdn.com/t/font_1031158_u69w8yhxdu.woff2?t=1630033759944") format("woff2"), url("//at.alicdn.com/t/font_1031158_u69w8yhxdu.woff?t=1630033759944") format("woff"), url("//at.alicdn.com/t/font_1031158_u69w8yhxdu.ttf?t=1630033759944") format("truetype"); }
</style></defs><path d="M640 513.1c10.3-6 18.6-23.2 1.2-31.4-5.9-2.7-12-5.2-18.1-7.6C666.5 435.2 694 378.9 694 316c0-117.2-95.1-212.3-212.3-212.3S269.4 198.8 269.4 316c0 62.9 27.5 119.2 70.9 158.1-128.6 50.5-223.5 167.9-242 309.4-0.2 1.7-0.3 3.4-0.3 5.1 0 26.7 21.6 48.4 48.4 48.4H549c-18.5-34.2-29.1-73.4-29.1-115 0.1-89.2 48.4-167 120.1-208.9z" p-id="16327" fill="#fa07c2"></path><path d="M761.7 523.4c-109.4 0-198.5 89-198.5 198.5 0 109.4 89 198.5 198.5 198.5s198.5-89 198.5-198.5c0-109.4-89-198.5-198.5-198.5z m124.7 188.7l-42.8 43.4c-1.8 1.8-3.1 4.9-2.4 7.3l10.4 62.4c1.8 8.6-1.8 16.5-8.6 21.4-3.7 2.4-7.9 3.7-12.2 3.7-3.1 0-6.7-0.6-9.8-2.4l-53.2-29.3c-1.8-1.2-4.3-1.2-6.1 0l-53.2 29.3c-7.3 3.7-15.3 3.1-22-1.2-7.3-4.9-10.4-12.8-9.2-21.4l10.4-61.7c0.6-3.1 0-5.5-1.8-7.3l-43.4-44c-5.5-6.1-7.3-14.7-4.9-22.6 2.4-7.3 8.6-12.8 16.5-14.1l59.3-9.2c2.4 0 4.3-1.8 5.5-4.3l26.3-56.2c3.7-7.9 11-12.2 18.9-12.2s15.3 4.9 18.9 12.2l26.9 56.2c1.2 2.4 3.1 3.7 5.5 4.3l59.3 9.2c7.3 0.6 14.1 6.1 16.5 14.1 3.1 7.7 0.7 16.3-4.8 22.4z" p-id="16328" fill="#fa07c2"></path></svg>