<?xml version="1.0" standalone="no"?><!DOCTYPE svg PUBLIC "-//W3C//DTD SVG 1.1//EN" "http://www.w3.org/Graphics/SVG/1.1/DTD/svg11.dtd"><svg t="1651669637120" class="icon" viewBox="0 0 1024 1024" version="1.1" xmlns="http://www.w3.org/2000/svg" p-id="9119" xmlns:xlink="http://www.w3.org/1999/xlink" width="200" height="200"><defs><style type="text/css">@font-face { font-family: feedback-iconfont; src: url("//at.alicdn.com/t/font_1031158_u69w8yhxdu.woff2?t=1630033759944") format("woff2"), url("//at.alicdn.com/t/font_1031158_u69w8yhxdu.woff?t=1630033759944") format("woff"), url("//at.alicdn.com/t/font_1031158_u69w8yhxdu.ttf?t=1630033759944") format("truetype"); }
</style></defs><path d="M64 512c0 160.055 85.388 307.952 224 387.98 138.612 80.027 309.388 80.027 448 0C874.612 819.951 960 672.054 960 512c0-247.424-200.576-448-448-448S64 264.576 64 512z" fill="#E78AF2" p-id="9120"></path><path d="M748.8 232c23.859 0 43.2 19.341 43.2 43.2v473.6c0 23.859-19.341 43.2-43.2 43.2H275.2c-23.859 0-43.2-19.341-43.2-43.2V275.2c0-23.859 19.341-43.2 43.2-43.2z m0 40H275.2a3.2 3.2 0 0 0-3.2 3.2v473.6a3.2 3.2 0 0 0 3.2 3.2h37.066c5.41-105.624 92.766-189.6 199.734-189.6S706.323 646.376 711.734 752H748.8a3.2 3.2 0 0 0 3.2-3.2V275.2a3.2 3.2 0 0 0-3.2-3.2zM512 312c66.274 0 120 53.726 120 120s-53.726 120-120 120-120-53.726-120-120 53.726-120 120-120z" fill="#F9EFFF" p-id="9121"></path></svg>