<?xml version="1.0" standalone="no"?><!DOCTYPE svg PUBLIC "-//W3C//DTD SVG 1.1//EN" "http://www.w3.org/Graphics/SVG/1.1/DTD/svg11.dtd"><svg t="1651725274122" class="icon" viewBox="0 0 1024 1024" version="1.1" xmlns="http://www.w3.org/2000/svg" p-id="3490" xmlns:xlink="http://www.w3.org/1999/xlink" width="200" height="200"><defs><style type="text/css">@font-face { font-family: feedback-iconfont; src: url("//at.alicdn.com/t/font_1031158_u69w8yhxdu.woff2?t=1630033759944") format("woff2"), url("//at.alicdn.com/t/font_1031158_u69w8yhxdu.woff?t=1630033759944") format("woff"), url("//at.alicdn.com/t/font_1031158_u69w8yhxdu.ttf?t=1630033759944") format("truetype"); }
</style></defs><path d="M444.397315 840.318127H266.532622A63.636426 63.636426 0 0 1 202.543639 775.624032V221.405405a63.812704 63.812704 0 0 1 63.988983-64.16526h426.945774A63.812704 63.812704 0 0 1 757.996213 221.405405v221.93424a21.505939 21.505939 0 0 0 42.8356 0V221.405405a107.529695 107.529695 0 0 0-107.353417-106.824582H266.532622a107.353417 107.353417 0 0 0-105.766914 106.824582V775.624032a107.529695 107.529695 0 0 0 105.766914 106.824582h177.864693a21.505939 21.505939 0 0 0 0-42.8356z" fill="#515151" p-id="3491"></path><path d="M504.155621 564.090205v-53.941126h68.395937a22.739886 22.739886 0 0 0 0-45.479773H504.155621v-31.377517h37.018419a22.739886 22.739886 0 0 0 0-45.479773h-37.018419v-15.688759c1.410226-1.410226 4.406955-2.820451 5.81718-4.230677l63.988982-65.399208a24.32639 24.32639 0 0 0 0-32.787743 22.563608 22.563608 0 0 0-31.377517 0l-61.168532 62.578757-61.168531-62.578757a22.563608 22.563608 0 0 0-31.377518 0 24.32639 24.32639 0 0 0 0 32.787743l64.165261 65.399208a19.390601 19.390601 0 0 0 5.640902 4.230677V387.812016h-37.01842a22.739886 22.739886 0 0 0 0 45.479773H458.323291v31.377517h-68.043381a22.739886 22.739886 0 1 0 0 45.479773H458.323291V564.090205a22.739886 22.739886 0 0 0 45.479773 0zM679.199862 520.196936A185.092098 185.092098 0 1 0 863.763126 705.112756a184.563264 184.563264 0 0 0-184.563264-184.91582z m0 327.348597A142.432777 142.432777 0 1 1 821.632639 705.112756a142.785333 142.785333 0 0 1-142.432777 142.432777z" fill="#515151" p-id="3492"></path><path d="M750.416251 698.061629h-70.511276l-1.410225-70.511276a21.329661 21.329661 0 1 0-42.659322 0v92.546049A21.858495 21.858495 0 0 0 657.870201 740.368394h92.54605a21.329661 21.329661 0 0 0 0-42.659322z" fill="#515151" p-id="3493"></path></svg>