<?xml version="1.0" standalone="no"?><!DOCTYPE svg PUBLIC "-//W3C//DTD SVG 1.1//EN" "http://www.w3.org/Graphics/SVG/1.1/DTD/svg11.dtd"><svg t="1651725101437" class="icon" viewBox="0 0 1024 1024" version="1.1" xmlns="http://www.w3.org/2000/svg" p-id="6189" xmlns:xlink="http://www.w3.org/1999/xlink" width="200" height="200"><defs><style type="text/css">@font-face { font-family: feedback-iconfont; src: url("//at.alicdn.com/t/font_1031158_u69w8yhxdu.woff2?t=1630033759944") format("woff2"), url("//at.alicdn.com/t/font_1031158_u69w8yhxdu.woff?t=1630033759944") format("woff"), url("//at.alicdn.com/t/font_1031158_u69w8yhxdu.ttf?t=1630033759944") format("truetype"); }
</style></defs><path d="M100.8 276a19.2 19.2 0 0 1 19.2-19.2h784a19.2 19.2 0 0 1 19.2 19.2v536a83.2 83.2 0 0 1-83.2 83.2h-656a83.2 83.2 0 0 1-83.2-83.2v-536z m38.4 19.2v516.8a44.8 44.8 0 0 0 44.8 44.8h656a44.8 44.8 0 0 0 44.8-44.8v-516.8H139.2z" p-id="6190" fill="#515151"></path><path d="M166.848 158.72a85.248 85.248 0 0 1 73.44-41.92h543.424c30.176 0 58.128 15.936 73.44 41.92l63.392 107.52a19.2 19.2 0 0 1-16.544 28.96h-784a19.2 19.2 0 0 1-16.544-28.96l63.392-107.52z m73.44-3.52a46.848 46.848 0 0 0-40.368 23.04L153.6 256.8h716.8l-46.32-78.56a46.848 46.848 0 0 0-40.368-23.04H240.288zM512 423.2a148.8 148.8 0 1 0 0 297.6 148.8 148.8 0 0 0 0-297.6z m-187.2 148.8c0-103.392 83.808-187.2 187.2-187.2 103.392 0 187.2 83.808 187.2 187.2 0 103.392-83.808 187.2-187.2 187.2-103.392 0-187.2-83.808-187.2-187.2z" p-id="6191" fill="#515151"></path><path d="M512 480.8a19.2 19.2 0 0 1 19.2 19.2v72a19.2 19.2 0 1 1-38.4 0v-72a19.2 19.2 0 0 1 19.2-19.2z" p-id="6192" fill="#515151"></path><path d="M603.2 572a19.2 19.2 0 0 1-19.2 19.2H512a19.2 19.2 0 1 1 0-38.4h72a19.2 19.2 0 0 1 19.2 19.2z" p-id="6193" fill="#515151"></path></svg>