<?xml version="1.0" standalone="no"?><!DOCTYPE svg PUBLIC "-//W3C//DTD SVG 1.1//EN" "http://www.w3.org/Graphics/SVG/1.1/DTD/svg11.dtd"><svg t="1651738272091" class="icon" viewBox="0 0 1024 1024" version="1.1" xmlns="http://www.w3.org/2000/svg" p-id="2947" xmlns:xlink="http://www.w3.org/1999/xlink" width="200" height="200"><defs><style type="text/css">@font-face { font-family: feedback-iconfont; src: url("//at.alicdn.com/t/font_1031158_u69w8yhxdu.woff2?t=1630033759944") format("woff2"), url("//at.alicdn.com/t/font_1031158_u69w8yhxdu.woff?t=1630033759944") format("woff"), url("//at.alicdn.com/t/font_1031158_u69w8yhxdu.ttf?t=1630033759944") format("truetype"); }
</style></defs><path d="M0 0h1024v1024H0z" fill="#1296db" fill-opacity=".01" p-id="2948"></path><path d="M999.651556 321.536a81.180444 81.180444 0 0 0-58.083556-24.177778c-44.942222 0-81.464889 36.124444-81.464889 80.497778 0 12.458667 2.958222 24.689778 8.533333 35.783111-47.672889 28.899556-95.345778 57.628444-142.791111 86.243556l-103.310222-186.026667-31.288889-56.32c19.342222-15.246222 30.72-38.229333 30.72-62.919111 0-44.373333-36.579556-80.497778-81.464889-80.497778-44.942222 0-81.464889 36.124444-81.464889 80.497778 0 25.258667 12.288 49.208889 32.540445 64.284444l-13.596445 24.462223-16.952888 30.606222c-33.848889 61.041778-68.835556 124.017778-103.424 185.856a2530.076444 2530.076444 0 0 1-27.761778-16.725334L317.44 475.591111c-20.593778-12.515556-41.187556-24.917333-61.838222-37.376L210.488889 411.022222c6.257778-11.491556 9.557333-24.462222 9.557333-37.774222 0-44.373333-36.522667-80.497778-81.464889-80.497778-44.885333 0-81.351111 36.124444-81.351111 80.497778 0 38.570667 27.875556 71.68 65.706667 78.961778l95.288889 322.446222 2.503111 8.760889c4.835556 17.635556 9.898667 35.84 29.184 35.953778 61.44 0.227556 126.008889 0.341333 191.544889 0.341333l200.704-0.170667 187.790222-0.170666c24.064 0 28.330667-17.863111 32.085333-33.678223 0.853333-3.470222 1.706667-7.224889 2.844445-11.036444l93.866666-318.179556a81.180444 81.180444 0 0 0 64-78.563555 79.075556 79.075556 0 0 0-23.096888-56.376889z m-459.150223-158.72c17.863111 0 32.426667 14.222222 32.426667 31.800889 0 17.578667-14.563556 31.857778-32.426667 31.857778a32.142222 32.142222 0 0 1-32.426666-31.857778c0-17.521778 14.563556-31.857778 32.426666-31.857778zM162.019556 395.377778a32.540444 32.540444 0 0 1-23.324445 9.671111 32.142222 32.142222 0 0 1-32.369778-31.857778c0-17.578667 14.563556-31.857778 32.426667-31.857778 17.863111 0 32.426667 14.279111 32.426667 31.857778a31.061333 31.061333 0 0 1-9.102223 22.186667z m682.837333 274.773333l-22.528 85.560889c-0.910222 2.958222-0.910222 8.021333-0.512 20.536889h-559.217778c3.128889-7.68 3.982222-11.662222 2.958222-15.246222L187.847111 497.777778c-3.356444-11.491556-6.826667-23.04-10.24-34.417778l-5.006222-16.839111a53.077333 53.077333 0 0 0 1.251555-0.568889l118.328889 71.452444 12.231111 7.452445c11.776 7.168 24.007111 14.563556 36.124445 21.731555a39.139556 39.139556 0 0 0 31.288889 5.290667 38.172444 38.172444 0 0 0 23.779555-19.569778 139503.616 139503.616 0 0 0 133.859556-240.924444l8.931555-16.042667c2.048 0 4.152889 0 6.428445-0.113778l34.702222 62.407112c35.271111 63.374222 70.485333 126.748444 105.642667 190.179555 5.575111 9.898667 13.084444 20.536889 26.737778 24.177778 2.844444 0.739556 5.688889 1.137778 8.647111 1.137778 10.353778 0 19.569778-4.835556 26.453333-8.988445l80.440889-48.583111 76.401778-46.193778c1.706667 0.910222 3.527111 1.763556 5.347555 2.56l-38.115555 129.365334-26.168889 88.974222z m96.711111-260.551111a32.142222 32.142222 0 0 1-32.426667-31.800889c0-17.521778 14.563556-31.857778 32.426667-31.857778 17.863111 0 32.426667 14.336 32.426667 31.857778 0 17.578667-14.563556 31.857778-32.426667 31.857778z m-340.536889 489.642667H295.651556a25.770667 25.770667 0 1 0 0 51.712h305.379555a25.770667 25.770667 0 0 0 25.656889-25.827556 25.770667 25.770667 0 0 0-25.656889-25.884444z m183.182222 0h-61.041777a25.656889 25.656889 0 0 0-25.656889 25.827555c0 14.108444 11.264 25.6 25.201777 25.884445h61.553778a25.770667 25.770667 0 0 0 25.6-25.827556 25.770667 25.770667 0 0 0-25.6-25.884444z" fill="#1296db" p-id="2949"></path><path d="M800.597333 610.816l-19.171555 72.647111c-0.739556 2.503111-0.739556 6.826667-0.398222 17.464889H305.948444c2.673778-6.542222 3.413333-9.955556 2.503112-12.970667L242.460444 464.213333l-8.704-29.240889-4.266666-14.279111a45.112889 45.112889 0 0 0 1.137778-0.512l100.408888 60.700445 10.467556 6.371555c9.955556 6.087111 20.366222 12.344889 30.663111 18.432 8.760889 5.176889 17.066667 6.883556 26.510222 4.494223a32.426667 32.426667 0 0 0 20.252445-16.611556 118512.184889 118512.184889 0 0 0 113.777778-204.686222l7.509333-13.653334c1.763556 0.056889 3.584 0 5.461333-0.056888l29.468445 53.020444c29.980444 53.816889 59.904 107.690667 89.770666 161.564444 4.721778 8.419556 11.150222 17.464889 22.755556 20.48a28.16 28.16 0 0 0 7.281778 0.967112 44.600889 44.600889 0 0 0 22.528-7.566223l68.323555-41.301333 64.853334-39.253333 4.551111 2.218666-32.312889 109.852445-22.300445 75.605333z" fill="#1296db" fill-opacity=".24" p-id="2950"></path></svg>