<?xml version="1.0" standalone="no"?><!DOCTYPE svg PUBLIC "-//W3C//DTD SVG 1.1//EN" "http://www.w3.org/Graphics/SVG/1.1/DTD/svg11.dtd"><svg t="1651726033503" class="icon" viewBox="0 0 1117 1024" version="1.1" xmlns="http://www.w3.org/2000/svg" p-id="10372" xmlns:xlink="http://www.w3.org/1999/xlink" width="218.1640625" height="200"><defs><style type="text/css">@font-face { font-family: feedback-iconfont; src: url("//at.alicdn.com/t/font_1031158_u69w8yhxdu.woff2?t=1630033759944") format("woff2"), url("//at.alicdn.com/t/font_1031158_u69w8yhxdu.woff?t=1630033759944") format("woff"), url("//at.alicdn.com/t/font_1031158_u69w8yhxdu.ttf?t=1630033759944") format("truetype"); }
</style></defs><path d="M902.656 336.756364h58.507636a425.425455 425.425455 0 0 0-143.080727-185.344 425.797818 425.797818 0 0 0-252.928-83.083637 425.797818 425.797818 0 0 0-252.974545 83.083637 425.425455 425.425455 0 0 0-143.034182 185.344h43.938909c16.616727 0 31.790545 6.795636 42.821818 17.826909l0.093091 0.046545 0.046545 0.046546c11.031273 11.077818 17.826909 26.251636 17.82691 42.821818v314.368c0 16.570182-6.842182 31.744-17.82691 42.821818H256l-0.093091 0.093091a60.602182 60.602182 0 0 1-42.821818 17.826909H142.289455a131.118545 131.118545 0 0 1-92.858182-38.632727l-0.139637-0.093091a131.118545 131.118545 0 0 1-38.632727-92.858182v-172.683636c0-36.212364 14.801455-69.12 38.632727-92.951273l0.093091 0.046545c14.429091-14.429091 32.256-25.6 52.037818-32.116363a487.330909 487.330909 0 0 1 174.405819-241.570909A487.098182 487.098182 0 0 1 565.154909 6.702545c106.775273 0 207.453091 34.816 289.326546 95.13891a487.330909 487.330909 0 0 1 176.593454 248.32c13.032727 6.469818 24.994909 14.987636 35.328 25.320727v-0.046546c23.877818 23.831273 38.679273 56.738909 38.679273 92.951273v172.683636c0 36.119273-14.801455 69.026909-38.632727 92.858182l-0.093091 0.093091a131.118545 131.118545 0 0 1-92.858182 38.632727h-19.688727l8.005818 5.725091a487.563636 487.563636 0 0 1-396.660364 204.008728h-2.466909a55.435636 55.435636 0 1 1 10.24-61.765819 426.123636 426.123636 0 0 0 316.509091-149.457454 61.067636 61.067636 0 0 1-29.602909-16.290909l-0.046546-0.093091-0.093091-0.046546a60.555636 60.555636 0 0 1-17.826909-42.821818V397.498182c0-16.570182 6.842182-31.744 17.826909-42.821818h0.093091l0.046546-0.093091c11.077818-11.031273 26.205091-17.826909 42.821818-17.826909zM212.200727 398.429091H142.289455c-19.269818 0-36.770909 7.819636-49.338182 20.433454v0.139637a69.678545 69.678545 0 0 0-20.573091 49.338182v172.683636a69.818182 69.818182 0 0 0 69.911273 69.911273h69.911272V398.429091z m761.297455 0h-69.957818v312.506182h69.957818a69.864727 69.864727 0 0 0 69.911273-69.911273v-172.683636c0-19.176727-7.912727-36.677818-20.573091-49.338182v-0.139637c-12.567273-12.567273-30.068364-20.48-49.338182-20.48z" p-id="10373" fill="#707070"></path></svg>