<?xml version="1.0" standalone="no"?><!DOCTYPE svg PUBLIC "-//W3C//DTD SVG 1.1//EN" "http://www.w3.org/Graphics/SVG/1.1/DTD/svg11.dtd"><svg t="1651725632713" class="icon" viewBox="0 0 1024 1024" version="1.1" xmlns="http://www.w3.org/2000/svg" p-id="6729" xmlns:xlink="http://www.w3.org/1999/xlink" width="200" height="200"><defs><style type="text/css">@font-face { font-family: feedback-iconfont; src: url("//at.alicdn.com/t/font_1031158_u69w8yhxdu.woff2?t=1630033759944") format("woff2"), url("//at.alicdn.com/t/font_1031158_u69w8yhxdu.woff?t=1630033759944") format("woff"), url("//at.alicdn.com/t/font_1031158_u69w8yhxdu.ttf?t=1630033759944") format("truetype"); }
</style></defs><path d="M704 170.666667H320v53.333333a21.333333 21.333333 0 0 1-42.666667 0V170.666667h-42.666666a106.666667 106.666667 0 0 0-106.666667 106.666666v85.333334h768v-85.333334a106.666667 106.666667 0 0 0-106.666667-106.666666h-42.666666v53.333333a21.333333 21.333333 0 0 1-42.666667 0V170.666667z m42.666667-42.666667h42.666666a149.333333 149.333333 0 0 1 149.333334 149.333333v512a149.333333 149.333333 0 0 1-149.333334 149.333334H234.666667a149.333333 149.333333 0 0 1-149.333334-149.333334V277.333333a149.333333 149.333333 0 0 1 149.333334-149.333333h42.666666V96a21.333333 21.333333 0 0 1 42.666667 0V128h384V96a21.333333 21.333333 0 0 1 42.666667 0V128z m149.333333 277.333333H128v384a106.666667 106.666667 0 0 0 106.666667 106.666667h554.666666a106.666667 106.666667 0 0 0 106.666667-106.666667V405.333333zM327.210667 642.304a21.333333 21.333333 0 0 1 28.245333-32l98.048 86.549333a21.333333 21.333333 0 0 0 29.866667-1.642666l179.882666-197.568a21.333333 21.333333 0 0 1 31.552 28.714666l-179.861333 197.568a64 64 0 0 1-89.664 4.906667l-98.069333-86.528z" p-id="6730" fill="#707070"></path></svg>