<?xml version="1.0" standalone="no"?><!DOCTYPE svg PUBLIC "-//W3C//DTD SVG 1.1//EN" "http://www.w3.org/Graphics/SVG/1.1/DTD/svg11.dtd"><svg t="1648368427651" class="icon" viewBox="0 0 1024 1024" version="1.1" xmlns="http://www.w3.org/2000/svg" p-id="7998" xmlns:xlink="http://www.w3.org/1999/xlink" width="200" height="200"><defs><style type="text/css">@font-face { font-family: feedback-iconfont; src: url("//at.alicdn.com/t/font_1031158_u69w8yhxdu.woff2?t=1630033759944") format("woff2"), url("//at.alicdn.com/t/font_1031158_u69w8yhxdu.woff?t=1630033759944") format("woff"), url("//at.alicdn.com/t/font_1031158_u69w8yhxdu.ttf?t=1630033759944") format("truetype"); }
</style></defs><path d="M906.19904 116.38784H115.92704c-34.31424 0-62.14656 27.83744-62.14656 62.17216v0.29696c0 34.33984 27.83232 62.17216 62.14656 62.17216h790.272c34.30912 0 62.15168-27.83744 62.15168-62.17216v-0.29696c0-34.33472-27.84256-62.17216-62.15168-62.17216z m-0.31744 331.05408H116.2496c-34.5088 0-62.46912 27.98592-62.46912 62.47424v0.49152c0 34.48832 27.9552 62.46912 62.46912 62.46912H905.8816c34.5088 0 62.46912-27.9808 62.46912-62.46912v-0.49152c0-34.48832-27.96032-62.47424-62.46912-62.47424z m0.31744 331.84768H115.92704c-34.31424 0-62.14656 27.84256-62.14656 62.17728v0.29696c0 34.33984 27.83232 62.17728 62.14656 62.17728h790.272c34.30912 0 62.15168-27.83744 62.15168-62.17728v-0.29696c0-34.33472-27.84256-62.17728-62.15168-62.17728z" p-id="7999" fill="#fd2656"></path></svg>