<?xml version="1.0" standalone="no"?><!DOCTYPE svg PUBLIC "-//W3C//DTD SVG 1.1//EN" "http://www.w3.org/Graphics/SVG/1.1/DTD/svg11.dtd"><svg t="1638282217018" class="icon" viewBox="0 0 1024 1024" version="1.1" xmlns="http://www.w3.org/2000/svg" p-id="1282" xmlns:xlink="http://www.w3.org/1999/xlink" width="200" height="200"><defs><style type="text/css"></style></defs><path d="M653.77792 25.6a51.2 51.2 0 0 1 36.20352 14.99648l213.20704 213.20704a51.2 51.2 0 0 1 15.0016 36.20352V844.8c0 84.83328-68.77184 153.6-153.6 153.6H261.12c-84.83328 0-153.6-68.76672-153.6-153.6V179.2C107.52 94.36672 176.28672 25.6 261.12 25.6h392.65792z m21.20704 526.93504H350.72a40.53504 40.53504 0 1 0 0 81.06496h324.26496a40.53504 40.53504 0 1 0 0-81.06496z m0-202.67008H350.72a40.53504 40.53504 0 1 0 0 81.07008h324.26496a40.53504 40.53504 0 1 0 0-81.07008z" fill="#878D91" p-id="1283"></path></svg>