<?xml version="1.0" standalone="no"?><!DOCTYPE svg PUBLIC "-//W3C//DTD SVG 1.1//EN" "http://www.w3.org/Graphics/SVG/1.1/DTD/svg11.dtd"><svg t="1638282177162" class="icon" viewBox="0 0 1024 1024" version="1.1" xmlns="http://www.w3.org/2000/svg" p-id="1005" xmlns:xlink="http://www.w3.org/1999/xlink" width="200" height="200"><defs><style type="text/css"></style></defs><path d="M602.8288 78.41792l332.8 244.05504A153.6 153.6 0 0 1 998.4 446.336v384.67072c0 84.83328-68.76672 153.6-153.6 153.6H179.2c-84.83328 0-153.6-68.76672-153.6-153.6V446.336a153.6 153.6 0 0 1 62.7712-123.86304l332.8-244.05504a153.6 153.6 0 0 1 181.6576 0z m-93.30688 435.1488c-69.3248 0-125.52192 56.19712-125.52192 125.52192v220.32384a30.72 30.72 0 0 0 30.72 30.72h189.60384a30.72 30.72 0 0 0 30.72-30.72v-220.32384c0-69.3248-56.19712-125.52192-125.52192-125.52192z" fill="#878D91" p-id="1006"></path></svg>