<?xml version="1.0" standalone="no"?><!DOCTYPE svg PUBLIC "-//W3C//DTD SVG 1.1//EN" "http://www.w3.org/Graphics/SVG/1.1/DTD/svg11.dtd"><svg t="1638282188252" class="icon" viewBox="0 0 1024 1024" version="1.1" xmlns="http://www.w3.org/2000/svg" p-id="1143" xmlns:xlink="http://www.w3.org/1999/xlink" width="200" height="200"><defs><style type="text/css"></style></defs><path d="M796.73856 245.26336c84.82816 0 153.6 68.77184 153.6 153.6V844.8c0 84.83328-68.77184 153.6-153.6 153.6H225.28c-84.83328 0-153.6-68.76672-153.6-153.6V398.86336c0-84.82816 68.76672-153.6 153.6-153.6h571.45856z m-73.91232 282.42944c-12.99456-25.99936-44.60544-36.53632-70.6048-23.53664l-90.83904 45.4144a112.64 112.64 0 0 1-100.74624 0l-90.83904-45.4144a52.62848 52.62848 0 0 0-47.07328 0c-25.99424 12.99456-36.5312 44.61056-23.53664 70.6048l111.07328 222.14144a112.64 112.64 0 0 0 50.37568 50.37568c55.63904 27.82208 123.29984 5.26848 151.12192-50.37568l111.06816-222.14144a52.62848 52.62848 0 0 0 0-47.06816z" fill="#878D91" p-id="1144"></path><path d="M511.00672 25.6c155.9808 0 282.42944 126.44864 282.42944 282.42432 0 155.9808-564.85376 155.9808-564.85376 0C228.5824 152.04864 355.03104 25.6 511.00672 25.6z m0 128c-73.344 0-134.74816 51.13344-150.5024 119.70048l-0.44032 1.9712 1.00352 0.37376c35.13344 12.93824 88.7808 21.00736 146.11456 21.3504l3.82464 0.01536c57.48736 0 111.62112-7.78752 147.57376-20.51072l2.37056-0.85504 0.9984-0.37376-0.4352-1.9712c-15.56992-67.76832-75.73504-118.50752-147.95264-119.68L511.00672 153.6z" fill="#878D91" p-id="1145"></path></svg>